# xmcd
#
# Track frame offsets:
#	150
#	15367
#	35504
#	52071
#	68918
#	85302
#	93859
#	109286
#	127863
#	137190
#
# Disc length: 2019 seconds
#
# Revision: 1
# Processed by: cddbd v1.5.1PL0 Copyright (c) Steve Scherf et al.
# Submitted via: CDRider 2.1
#
DISCID=8107e10a
DTITLE=Misc - Wangler Cowboy Christmas
DYEAR=1900
DGENRE=Country
TTITLE0=George_Straight-I_know_What_I_Want_for_Christmas
TTITLE1=Lee_Ann_Womack-The_Nativity
TTITLE2=Toby_Keith-Hot_Rot_Sleight
TTITLE3=Vince_Gill-It_Won't_Be_the_Same_This_Year
TTITLE4=Rebecca_Lynn_Howard-The_First_Noel
TTITLE5=Gary_Allan-Up_On_the_Housetop
TTITLE6=Steve_Warniner-On_Christmas_Morning
TTITLE7=Kathy_Mattea-Nothing_But_A_Child
TTITLE8=Sammy_Kershaw-Winter_Wonderland
TTITLE9=Ricochet-My_Christmas_List
EXTD=
EXTT0=
EXTT1=
EXTT2=
EXTT3=
EXTT4=
EXTT5=
EXTT6=
EXTT7=
EXTT8=
EXTT9=
PLAYORDER=
